HIERARCHY
ROOT root
{
	OFFSET	0	13.1	24.9
	CHANNELS 6  Xposition Yposition Zposition Xrotation Yrotation Zrotation
	JOINT spine_1
	{
		OFFSET	0	9.99999	0
		CHANNELS 3  Xrotation Yrotation Zrotation
		JOINT spine_2
		{
			OFFSET	0	112	-10
			CHANNELS 3  Xrotation Yrotation Zrotation
			JOINT spine_3
			{
				OFFSET	0	206.5	19.3
				CHANNELS 3  Xrotation Yrotation Zrotation
				JOINT spine_4
				{
					OFFSET	0	110.4	14.6
					CHANNELS 3  Xrotation Yrotation Zrotation
					JOINT neck_1
					{
						OFFSET	0	71.8	-50.3
						CHANNELS 3  Xrotation Yrotation Zrotation
						JOINT neck_2
						{
							OFFSET	0	86.2	-25.8
							CHANNELS 3  Xrotation Yrotation Zrotation
							JOINT head_ee
							{
								OFFSET	0	179.8	-8.7
								CHANNELS 3  Xrotation Yrotation Zrotation
								End Site
								{
									OFFSET	1	0	0
								}
							}
						}
					}
					JOINT left_clavicle
					{
						OFFSET	-43.2	22.4	-70.8
						CHANNELS 3  Xrotation Yrotation Zrotation
						JOINT left_shoulder
						{
							OFFSET	-93.9	-5.79999	48.7
							CHANNELS 3  Xrotation Yrotation Zrotation
							JOINT left_elbow
							{
								OFFSET	-291.4	-30.8	15.2
								CHANNELS 3  Xrotation Yrotation Zrotation
								JOINT left_lowarm_twist
								{
									OFFSET	-110.7	-3.89999	13.6
									CHANNELS 3  Xrotation Yrotation Zrotation
									JOINT left_hand
									{
										OFFSET	-110.7	-3.89999	13.6
										CHANNELS 3  Xrotation Yrotation Zrotation
										JOINT left_ee
										{
											OFFSET	-80.8	-5.10001	12.1
											CHANNELS 3  Xrotation Yrotation Zrotation
											End Site
											{
												OFFSET	1	0	0
											}
										}
									}
								}
							}
						}
					}
					JOINT right_clavicle
					{
						OFFSET	43.2	22.4	-70.8
						CHANNELS 3  Xrotation Yrotation Zrotation
						JOINT right_shoulder
						{
							OFFSET	93.9	-5.79999	48.7
							CHANNELS 3  Xrotation Yrotation Zrotation
							JOINT right_elbow
							{
								OFFSET	291.4	-30.8	15.2
								CHANNELS 3  Xrotation Yrotation Zrotation
								JOINT right_lowarm_twist
								{
									OFFSET	110.7	-3.89999	13.6
									CHANNELS 3  Xrotation Yrotation Zrotation
									JOINT right_hand
									{
										OFFSET	110.7	-3.89999	13.6
										CHANNELS 3  Xrotation Yrotation Zrotation
										JOINT right_ee
										{
											OFFSET	80.8	-5.10001	12.1
											CHANNELS 3  Xrotation Yrotation Zrotation
											End Site
											{
												OFFSET	1	0	0
											}
										}
									}
								}
							}
						}
					}
				}
			}
		}
	}
	JOINT left_hip
	{
		OFFSET	-82.8	-127.5	0.300001
		CHANNELS 3  Xrotation Yrotation Zrotation
		JOINT left_knee
		{
			OFFSET	-28.2	-396.7	2.2
			CHANNELS 3  Xrotation Yrotation Zrotation
			JOINT left_ankle
			{
				OFFSET	-11.7	-411.3	35.4
				CHANNELS 3  Xrotation Yrotation Zrotation
				JOINT left_toes
				{
					OFFSET	0	-60	-88.6
					CHANNELS 3  Xrotation Yrotation Zrotation
					JOINT left_foot_ee
					{
						OFFSET	-22.5	-16.5	-42.2
						CHANNELS 3  Xrotation Yrotation Zrotation
						End Site
						{
							OFFSET	1	0	0
						}
					}
				}
			}
		}
	}
	JOINT right_hip
	{
		OFFSET	82.8	-127.5	0.300001
		CHANNELS 3  Xrotation Yrotation Zrotation
		JOINT right_knee
		{
			OFFSET	28.2	-396.7	2.2
			CHANNELS 3  Xrotation Yrotation Zrotation
			JOINT right_ankle
			{
				OFFSET	11.7	-411.3	35.4
				CHANNELS 3  Xrotation Yrotation Zrotation
				JOINT right_toes
				{
					OFFSET	0	-60	-88.6
					CHANNELS 3  Xrotation Yrotation Zrotation
					JOINT right_foot_ee
					{
						OFFSET	22.5	-16.5	-42.2
						CHANNELS 3  Xrotation Yrotation Zrotation
						End Site
						{
							OFFSET	1	0	0
						}
					}
				}
			}
		}
	}
}
MOTION
Frames: 13
Frame Time: 0.02
1904.79 686.595 -1298.91 -17.7291 43.1347 14.0824 5.93845 0.190703 -0.0819118 5.93843 0.195528 -0.0696109 5.93821 0.201898 -0.0481059 5.93826 0.191767 -0.0793883 -3.81924 11.0219 -3.27798 -3.57544 22.6434 -1.68879 -0.0 0.0 -0.0 2.87148 8.88853 6.07893 -7.0041 -7.2403 61.9479 4.98957 -67.948 3.36337 -37.2203 -2.66051 3.85396 -2.12446 28.6667 -0.284648 -0.0 0.0 -0.0 2.73171 -2.28292 -5.42253 -15.4893 1.24839 -77.8609 0.251671 7.1066 -0.0156279 -55.8428 4.77075 -4.95307 3.43952 -10.6498 -27.5254 0.0 0.0 0.0 -0.814302 -11.4962 7.59843 -0.796851 0.0319899 0.118101 42.2749 24.4883 -5.36362 14.3037 -0.0 -0.0 -0.0 0.0 -0.0 43.9079 33.081 -15.0752 3.65337 0.167595 0.53541 -2.55889 -13.0237 -0.3778 -8.78293 0.0 0.0 0.0 0.0 0.0 
1885.41 684.995 -1308.38 -16.7005 42.7254 12.974 5.48113 0.148072 -0.0624661 5.48112 0.151747 -0.0529173 5.48099 0.156855 -0.0349836 5.48102 0.149361 -0.0593169 -6.26019 10.943 -1.88571 -6.19813 21.6406 0.205985 -0.0 0.0 -0.0 2.6704 11.2925 5.86015 -8.90528 -8.05867 62.1577 5.16805 -68.6381 3.5292 -35.3026 -2.46601 3.70329 -1.88493 28.7253 1.03078 -0.0 0.0 -0.0 3.41429 -1.64484 -6.67776 -13.934 1.64962 -77.2294 0.227678 6.43506 -0.012799 -57.0398 4.91708 -4.99953 2.64114 -10.4344 -21.7735 0.0 0.0 0.0 -0.723971 -10.797 8.2192 -3.95724 0.142584 0.590457 42.4488 23.2479 -5.33933 17.7501 -0.0 -0.0 -0.0 0.0 -0.0 43.6097 33.3333 -15.5142 0.965066 0.0409413 0.142433 -6.1965 -14.2906 -0.922941 -8.30095 0.0 0.0 0.0 0.0 0.0 
1855.49 682.12 -1323.93 -15.2673 43.1382 11.088 5.43285 -0.190551 0.077314 5.43284 -0.195085 0.065032 5.43263 -0.20134 0.0418267 5.43268 -0.192207 0.0730998 -6.8132 11.3687 -2.75543 -6.76138 23.0964 -0.474374 -0.0 0.0 -0.0 3.06443 12.944 6.60107 -11.0432 -6.69278 62.2317 4.52987 -65.9587 2.9403 -35.4064 -2.47641 3.71161 -1.46681 28.7296 3.28074 -0.0 0.0 -0.0 3.9427 -1.68276 -7.68743 -12.4294 2.70819 -76.747 0.197277 5.58167 -0.00961685 -58.6817 5.11927 -5.05825 1.87967 -10.8702 -16.7335 0.0 0.0 0.0 -1.91028 -12.2941 9.28575 -6.3041 0.207752 0.944701 42.0088 21.374 -5.24557 19.4967 -0.0 -0.0 -0.0 0.0 -0.0 43.3942 33.5028 -15.5504 -6.14924 -0.203899 -0.921249 -1.79857 -13.9512 -0.265498 -5.46649 0.0 0.0 0.0 0.0 0.0 
1834.44 682.44 -1335.65 -13.7881 43.9326 9.37404 5.28461 -0.327316 0.181021 5.28457 -0.338171 0.159826 5.28367 -0.354819 0.118355 5.28381 -0.331674 0.172907 -7.6017 11.2403 -2.77657 -7.59834 22.9186 -0.357025 -0.0 0.0 -0.0 3.37771 13.89 7.15326 -13.2649 -7.31553 62.4349 4.1341 -63.9546 2.58168 -34.8581 -2.42166 3.66745 -1.05571 28.7388 5.50106 -0.0 0.0 -0.0 4.71171 -0.983608 -9.13476 -10.2004 3.00191 -76.0001 0.191991 5.43301 -0.0091095 -59.7346 5.24976 -5.09284 1.32271 -11.2292 -13.1731 0.0 0.0 0.0 -2.63635 -12.5281 10.1399 -8.15148 0.248807 1.22521 41.6975 19.7704 -5.17688 21.1609 -0.0 -0.0 -0.0 0.0 -0.0 43.4157 33.4247 -15.9241 -11.7129 -0.302336 -1.76898 -0.934738 -17.4487 -0.138797 -3.48317 0.0 0.0 0.0 0.0 0.0 
1811.24 687.622 -1352.54 -13.1333 43.4199 8.39967 5.20378 -0.0955812 0.269968 5.20382 -0.112566 0.263338 5.20327 -0.143516 0.247834 5.2032 -0.102574 0.267389 -6.59618 11.2923 -3.09567 -6.52236 23.1863 -0.87872 -0.0 0.0 -0.0 3.38623 13.7963 7.16432 -16.064 -7.40222 62.2876 3.50718 -60.061 2.02778 -34.2098 -2.35747 3.61456 -0.738131 28.6327 7.17833 -0.0 0.0 -0.0 5.01696 -0.844026 -9.72022 -10.3143 2.62873 -76.2444 0.189513 5.3633 -0.00887635 -59.9675 5.27871 -5.10017 1.08635 -10.7167 -11.4408 0.0 0.0 0.0 -3.24002 -12.8256 10.7513 -10.1906 0.283593 1.53616 40.3573 19.9015 -5.05911 22.3427 -0.0 -0.0 -0.0 0.0 -0.0 43.2353 33.3883 -16.5931 -15.7046 -0.322058 -2.38099 3.6227 -17.9206 0.532806 -0.980675 0.0 0.0 0.0 0.0 0.0 
1771.38 695.445 -1366.55 -12.7883 42.9803 8.0145 5.11899 0.130317 0.256707 5.11902 0.113718 0.26448 5.11951 0.080576 0.276385 5.11943 0.123214 0.260191 -4.79032 10.0941 -4.27017 -4.58559 21.7463 -2.67001 -0.0 0.0 -0.0 3.16677 15.814 6.87382 -19.3273 -8.27343 64.1005 2.97696 -55.8473 1.57805 -34.7993 -2.41581 3.66268 -0.53795 27.5039 7.83369 -0.0 0.0 -0.0 5.50286 -1.17193 -10.6696 -10.0387 1.54728 -75.2964 0.190872 5.40154 -0.00900389 -60.919 5.39726 -5.12887 0.438027 -12.6777 -7.99946 0.0 0.0 0.0 -3.45996 -11.8188 11.4259 -11.6052 0.301214 1.75249 40.3398 18.9273 -5.03553 22.7189 -0.0 -0.0 -0.0 0.0 -0.0 41.3153 33.6098 -16.5071 -18.1021 -0.313399 -2.74872 6.44649 -19.7696 0.94653 0.869292 -0.0 -0.0 0.0 0.0 0.0 
1743.84 704.989 -1376.81 -11.3195 43.685 6.01467 5.0156 0.162149 -0.0283873 5.01559 0.163626 -0.0180118 5.01555 0.164597 0.00240003 5.01559 0.162911 -0.0236252 -4.21013 10.586 -1.49789 -4.06216 20.5266 0.163229 -0.0 0.0 -0.0 3.29512 16.8082 7.10648 -22.0389 -9.11515 66.6412 2.47404 -50.7794 1.17436 -35.5721 -2.49303 3.72485 -0.572942 28.9815 8.21111 -0.0 0.0 -0.0 5.68938 -1.31584 -11.0337 -12.0095 1.15943 -73.5437 0.189081 5.35114 -0.00883598 -61.3339 5.4491 -5.14077 -0.180228 -15.3988 -5.17813 0.0 0.0 0.0 0.645635 -10.2242 11.523 -18.618 0.309525 2.82777 41.8088 19.0203 -5.16917 22.5444 -0.0 -0.0 -0.0 0.0 -0.0 33.6006 35.5322 -12.2894 -13.3164 -0.315383 -2.01466 11.5442 -18.6743 1.66182 2.61266 -0.0 -0.0 0.0 0.0 0.0 
1717.61 701.569 -1389.12 -10.8546 44.8188 5.30417 5.22429 0.272395 -0.16262 5.22426 0.282191 -0.144957 5.22358 0.297579 -0.109957 5.22367 0.276479 -0.155574 -3.21159 10.4324 -1.31539 -3.02956 20.0141 0.159353 -0.0 0.0 -0.0 2.71278 18.1004 6.24838 -23.54 -8.11101 68.6288 2.24177 -47.9908 0.997985 -34.1936 -2.35588 3.61323 -0.103126 27.9586 10.4085 -0.0 0.0 -0.0 6.68197 0.43281 -12.9597 -10.7507 -2.30766 -72.2079 0.194003 5.48959 -0.00930099 -61.093 5.41899 -5.13391 -0.409984 -18.8454 -5.15584 0.0 0.0 0.0 2.7269 -6.71899 11.3813 -27.2818 0.138544 4.14502 40.2686 16.8573 -4.98774 22.7508 -0.0 -0.0 -0.0 0.0 -0.0 27.1258 35.8033 -8.81148 -8.65448 -0.258416 -1.3018 18.6942 -20.4129 2.63676 2.30526 -0.0 -0.0 0.0 0.0 0.0 
1695.01 700.868 -1395.37 -9.30814 47.3367 3.7611 4.84835 0.00766537 -0.188897 4.84837 0.0196698 -0.188027 4.84829 0.043352 -0.184015 4.84825 0.0137462 -0.188553 -4.06524 10.7348 0.10772 -3.9433 19.5673 1.8182 -0.0 0.0 -0.0 2.76632 17.4695 6.30548 -25.1954 -8.17762 70.2314 1.94862 -43.9834 0.787028 -35.251 -2.46084 3.69914 0.761021 24.6421 14.2201 -0.0 0.0 -0.0 6.79345 2.2928 -13.165 -9.01857 -4.15901 -72.2296 0.2004 5.66946 -0.00992298 -60.9746 5.4042 -5.13049 -0.499365 -20.9865 -5.48381 0.0 0.0 0.0 4.66403 -7.07694 11.5135 -32.2537 -0.0488326 4.88479 39.1652 17.6576 -4.9017 23.2729 -0.0 -0.0 -0.0 0.0 -0.0 22.9551 35.7129 -6.37788 -8.52436 -0.255995 -1.28198 23.6812 -19.387 3.2545 3.67614 -0.0 -0.0 0.0 0.0 0.0 
1678.01 701.903 -1402.29 -8.57314 48.2708 3.01905 4.44836 0.0770934 -0.106287 4.44836 0.0837005 -0.101165 4.44822 0.0964765 -0.0890646 4.44821 0.0811997 -0.103184 -4.69492 10.9269 0.902109 -4.6036 19.3945 2.76235 -0.0 0.0 -0.0 2.58656 18.1141 6.05607 -26.2557 -8.71523 71.3405 1.72663 -40.5376 0.637673 -36.7231 -2.6096 3.81552 1.0602 23.4897 15.6336 -0.0 0.0 -0.0 7.81352 4.67486 -15.2253 -5.55542 -6.70933 -71.2478 0.193941 5.48784 -0.00929504 -60.1981 5.3074 -5.10731 -0.414914 -22.8757 -6.7293 0.0 0.0 0.0 7.5875 -6.81228 11.0256 -36.6421 -0.267074 5.52245 36.9738 18.3559 -4.70612 23.0808 -0.0 -0.0 -0.0 0.0 -0.0 19.748 35.0217 -5.00189 -7.49356 -0.235223 -1.12516 29.3561 -20.6437 3.94262 5.15579 -0.0 -0.0 0.0 0.0 0.0 
1668.05 702.243 -1404.95 -9.11329 53.0154 3.78819 4.31069 -0.157702 -0.204024 4.31071 -0.1444 -0.213645 4.31124 -0.113983 -0.231308 4.31119 -0.149083 -0.210403 -6.15606 9.92711 1.83465 -6.12711 17.0324 3.73713 -0.0 0.0 -0.0 1.53657 17.3849 4.40279 -25.4605 -9.46355 73.836 1.68131 -39.7867 0.608442 -37.4379 -2.6829 3.87064 2.02551 22.3094 21.2338 -0.0 0.0 -0.0 8.42319 7.22579 -16.4749 0.407829 -8.87714 -70.4094 0.203203 5.74823 -0.0102018 -58.6659 5.11731 -5.05771 -0.066939 -25.3101 -9.6559 0.0 0.0 0.0 10.3316 -7.95082 9.48334 -39.763 -0.451759 5.96509 36.0063 19.2552 -4.62773 22.0691 -0.0 -0.0 -0.0 0.0 -0.0 17.5116 33.6842 -3.28013 -6.49788 -0.212483 -0.974064 31.5223 -23.8063 4.25167 5.09783 -0.0 -0.0 0.0 0.0 0.0 
1658.58 702.351 -1407.05 -8.14518 55.1237 2.81393 4.1312 -0.177928 -0.0614451 4.13119 -0.173658 -0.0726426 4.13142 -0.161856 -0.0961073 4.13145 -0.175003 -0.069339 -6.47941 9.14777 1.56674 -6.46335 15.8183 3.3589 -0.0 0.0 -0.0 1.02734 17.2794 3.60923 -23.9128 -9.4061 75.083 1.52943 -37.1463 0.513941 -38.9981 -2.84524 3.98778 2.34151 22.6918 23.3472 -0.0 0.0 -0.0 8.73438 9.14885 -17.1064 4.59632 -10.5092 -69.9189 0.201143 5.69033 -0.00999653 -57.0936 4.92368 -5.00154 0.361546 -26.9249 -12.658 0.0 0.0 0.0 12.9275 -7.73268 8.65752 -42.1874 -0.611759 6.30175 35.4352 20.4552 -4.59455 21.2407 -0.0 -0.0 -0.0 0.0 -0.0 15.8762 32.8269 -2.63854 -6.45272 -0.211389 -0.96722 32.7099 -25.9589 4.43995 5.36165 -0.0 -0.0 0.0 0.0 0.0 
1642.14 703.672 -1411.28 -7.92551 57.3928 2.90705 3.93059 -0.18912 -0.141022 3.93058 -0.179763 -0.152771 3.93107 -0.156131 -0.176852 3.93107 -0.182102 -0.149974 -7.52936 8.86637 -0.368776 -7.54197 16.7811 1.51124 -0.0 0.0 -0.0 0.832571 18.9036 3.45595 -24.9207 -11.0331 74.7691 1.4032 -34.8013 0.439772 -39.6252 -2.91139 4.03361 2.84595 22.9486 26.6973 -0.0 0.0 -0.0 8.98621 10.2164 -17.6257 8.20037 -11.4726 -69.9983 0.278808 7.86375 -0.0191631 -54.3232 4.5864 -4.88969 0.789804 -27.1475 -15.1728 0.0 0.0 0.0 15.0377 -7.92977 8.21197 -44.8683 -0.805165 6.66592 34.4712 20.9528 -4.50574 20.4675 -0.0 -0.0 -0.0 0.0 -0.0 14.7679 31.5959 -2.37344 -7.70017 -0.239613 -1.15657 34.9928 -27.1522 4.72659 5.44514 -0.0 -0.0 0.0 0.0 0.0 
